<?xml version="1.0" encoding="UTF-8"?>
<!DOCTYPE svg PUBLIC "-//W3C//DTD SVG 1.1//EN" "http://www.w3.org/Graphics/SVG/1.1/DTD/svg11.dtd">
<svg version="1.0" xmlns="http://www.w3.org/2000/svg"
     width="38.000000pt" height="38.000000pt" viewBox="0 0 256.000000 256.000000"
     preserveAspectRatio="xMidYMid meet">
<g><path style="opacity:1" fill="#ac75dd" d="M 169.5,21.5 C 155.704,27.4922 141.537,32.8255 127,37.5C 112.911,32.1932 98.7448,27.1932 84.5,22.5C 85.0577,21.2101 86.0577,20.3768 87.5,20C 100.554,15.4261 113.721,11.2594 127,7.5C 141.489,11.4966 155.655,16.1633 169.5,21.5 Z"/></g>
<g><path style="opacity:1" fill="#a46cd5" d="M 224.5,40.5 C 210.343,45.1075 196.343,50.1075 182.5,55.5C 167.886,51.3624 153.553,46.3624 139.5,40.5C 149.923,36.4748 160.256,32.4748 170.5,28.5C 173.807,27.519 177.14,26.519 180.5,25.5C 195.546,29.7367 210.213,34.7367 224.5,40.5 Z"/></g>
<g><path style="opacity:1" fill="#a771d8" d="M 84.5,28.5 C 94.7273,32.7469 105.061,36.9135 115.5,41C 102.177,45.6601 88.8432,50.3268 75.5,55C 76.056,55.3826 76.3893,55.8826 76.5,56.5C 61.0178,51.3404 45.6845,46.0071 30.5,40.5C 43.4674,35.0076 56.8008,30.1742 70.5,26C 75.3495,25.6684 80.0162,26.5017 84.5,28.5 Z"/></g>
<g><path style="opacity:1" fill="#7d4ab5" d="M 30.5,40.5 C 45.6845,46.0071 61.0178,51.3404 76.5,56.5C 78.7857,56.595 80.7857,57.2616 82.5,58.5C 97.1915,64.7341 112.191,70.4008 127.5,75.5C 127.5,86.8333 127.5,98.1667 127.5,109.5C 126.833,109.5 126.167,109.5 125.5,109.5C 120.598,107.55 115.598,105.883 110.5,104.5C 87.6483,94.9926 64.315,86.6592 40.5,79.5C 37.1284,77.7544 33.6284,76.0878 30,74.5C 29.1741,62.9924 29.3407,51.6591 30.5,40.5 Z"/></g>
<g><path style="opacity:1" fill="#6a399a" d="M 169.5,21.5 C 170.468,23.6074 170.802,25.9407 170.5,28.5C 160.256,32.4748 149.923,36.4748 139.5,40.5C 153.553,46.3624 167.886,51.3624 182.5,55.5C 182.389,56.1174 182.056,56.6174 181.5,57C 177.044,56.8982 173.044,57.7316 169.5,59.5C 155.537,54.0118 141.371,49.0118 127,44.5C 112.289,49.6822 97.4554,54.3489 82.5,58.5C 80.7857,57.2616 78.7857,56.595 76.5,56.5C 76.3893,55.8826 76.056,55.3826 75.5,55C 88.8432,50.3268 102.177,45.6601 115.5,41C 105.061,36.9135 94.7273,32.7469 84.5,28.5C 84.5,26.5 84.5,24.5 84.5,22.5C 98.7448,27.1932 112.911,32.1932 127,37.5C 141.537,32.8255 155.704,27.4922 169.5,21.5 Z"/></g>
<g><path style="opacity:1" fill="#a56ed7" d="M 169.5,59.5 C 155.648,65.0095 141.648,70.3428 127.5,75.5C 112.191,70.4008 97.1915,64.7341 82.5,58.5C 97.4554,54.3489 112.289,49.6822 127,44.5C 141.371,49.0118 155.537,54.0118 169.5,59.5 Z"/></g>
<g><path style="opacity:1" fill="#5f3691" d="M 224.5,40.5 C 224.667,52.1714 224.5,63.8381 224,75.5C 220.953,76.5616 218.12,77.8949 215.5,79.5C 185.987,88.8934 156.654,98.8934 127.5,109.5C 127.5,98.1667 127.5,86.8333 127.5,75.5C 141.648,70.3428 155.648,65.0095 169.5,59.5C 173.044,57.7316 177.044,56.8982 181.5,57C 182.056,56.6174 182.389,56.1174 182.5,55.5C 196.343,50.1075 210.343,45.1075 224.5,40.5 Z"/></g>
<g><path style="opacity:1" fill="#2c7044" d="M 38.5,80.5 C 38.8417,79.6618 39.5084,79.3284 40.5,79.5C 64.315,86.6592 87.6483,94.9926 110.5,104.5C 110.265,105.097 109.765,105.43 109,105.5C 85.5783,96.86 62.0783,88.5267 38.5,80.5 Z"/></g>
<g><path style="opacity:1" fill="#2e8142" d="M 217.5,81.5 C 219.786,81.595 221.786,82.2616 223.5,83.5C 221.738,83.6427 220.071,83.3094 218.5,82.5C 207.979,87.1699 197.145,91.1699 186,94.5C 184.831,95.0085 183.998,95.8419 183.5,97C 170.783,100.511 158.116,104.011 145.5,107.5C 145.953,106.542 146.619,105.708 147.5,105C 156.502,101.11 165.835,98.4431 175.5,97C 188.781,90.0084 202.781,84.8417 217.5,81.5 Z"/></g>
<g><path style="opacity:1" fill="#3b9a44" d="M 30.5,83.5 C 30.8417,82.6618 31.5084,82.3284 32.5,82.5C 36.8967,82.4246 41.23,82.9246 45.5,84C 59.184,88.858 72.5173,94.5246 85.5,101C 97.2963,104.737 108.963,108.737 120.5,113C 125.202,113.828 129.869,113.662 134.5,112.5C 134.977,111.522 135.643,110.689 136.5,110C 138.5,109.667 140.5,109.333 142.5,109C 143.056,108.617 143.389,108.117 143.5,107.5C 144.167,107.5 144.833,107.5 145.5,107.5C 158.116,104.011 170.783,100.511 183.5,97C 183.998,95.8419 184.831,95.0085 186,94.5C 197.145,91.1699 207.979,87.1699 218.5,82.5C 220.071,83.3094 221.738,83.6427 223.5,83.5C 223.5,93.5 223.5,103.5 223.5,113.5C 219.707,113.687 215.707,114.354 211.5,115.5C 210.158,114.098 209.324,114.431 209,116.5C 206.814,117.022 204.481,117.022 202,116.5C 200.414,117.376 198.914,118.376 197.5,119.5C 196.167,119.167 194.833,118.833 193.5,118.5C 193.704,119.529 193.204,120.529 192,121.5C 189.505,120.149 187.172,120.482 185,122.5C 184.055,122.095 183.388,121.428 183,120.5C 181.177,122.235 178.844,123.235 176,123.5C 175.333,122.167 174.667,122.167 174,123.5C 173.683,121.699 173.016,121.366 172,122.5C 171.667,121.833 171.333,121.167 171,120.5C 169.573,122.787 167.739,123.12 165.5,121.5C 164.522,121.977 163.689,122.643 163,123.5C 161.612,122.446 160.112,122.28 158.5,123C 159.654,123.914 159.487,124.747 158,125.5C 156.883,125.335 155.716,125.002 154.5,124.5C 153.332,127.469 151.999,127.802 150.5,125.5C 147.731,126.296 145.064,126.629 142.5,126.5C 141.808,125.975 141.308,125.308 141,124.5C 138.602,127.054 136.269,127.054 134,124.5C 133.667,125.167 133.333,125.833 133,126.5C 132.3,124.968 131.134,123.968 129.5,123.5C 128.501,133.478 128.168,143.478 128.5,153.5C 128.167,153.5 127.833,153.5 127.5,153.5C 127.333,142.162 127.5,130.828 128,119.5C 138.407,115.475 148.907,111.642 159.5,108C 151.575,109.969 143.575,111.969 135.5,114C 128.414,115.288 121.414,115.288 114.5,114C 86.6028,103.755 58.6028,93.5879 30.5,83.5 Z"/></g>
<g><path style="opacity:1" fill="#266a3e" d="M 215.5,79.5 C 216.167,80.1667 216.833,80.8333 217.5,81.5C 202.781,84.8417 188.781,90.0084 175.5,97C 165.835,98.4431 156.502,101.11 147.5,105C 146.619,105.708 145.953,106.542 145.5,107.5C 144.833,107.5 144.167,107.5 143.5,107.5C 138.624,107.738 134.124,109.072 130,111.5C 128.378,110.901 126.878,110.234 125.5,109.5C 126.167,109.5 126.833,109.5 127.5,109.5C 156.654,98.8934 185.987,88.8934 215.5,79.5 Z"/></g>
<g><path style="opacity:1" fill="#52bf53" d="M 30.5,83.5 C 58.6028,93.5879 86.6028,103.755 114.5,114C 121.414,115.288 128.414,115.288 135.5,114C 143.575,111.969 151.575,109.969 159.5,108C 148.907,111.642 138.407,115.475 128,119.5C 127.5,130.828 127.333,142.162 127.5,153.5C 125.801,153.66 124.134,153.494 122.5,153C 92.913,141.861 63.2463,131.027 33.5,120.5C 31.9826,120.489 30.8159,119.823 30,118.5C 29.1739,106.659 29.3405,94.9927 30.5,83.5 Z"/></g>
<g><path style="opacity:1" fill="#2e8142" d="M 38.5,80.5 C 62.0783,88.5267 85.5783,96.86 109,105.5C 109.765,105.43 110.265,105.097 110.5,104.5C 115.598,105.883 120.598,107.55 125.5,109.5C 126.878,110.234 128.378,110.901 130,111.5C 134.124,109.072 138.624,107.738 143.5,107.5C 143.389,108.117 143.056,108.617 142.5,109C 140.5,109.333 138.5,109.667 136.5,110C 135.643,110.689 134.977,111.522 134.5,112.5C 129.869,113.662 125.202,113.828 120.5,113C 108.963,108.737 97.2963,104.737 85.5,101C 72.5173,94.5246 59.184,88.858 45.5,84C 41.23,82.9246 36.8967,82.4246 32.5,82.5C 34.2143,81.2616 36.2143,80.595 38.5,80.5 Z"/></g>
<g><path style="opacity:1" fill="#39913e" d="M 223.5,83.5 C 224.825,95.3398 224.825,107.34 223.5,119.5C 221.974,119.994 220.641,120.661 219.5,121.5C 189.716,130.733 160.383,141.067 131.5,152.5C 130.391,152.557 129.391,152.89 128.5,153.5C 128.168,143.478 128.501,133.478 129.5,123.5C 131.134,123.968 132.3,124.968 133,126.5C 133.333,125.833 133.667,125.167 134,124.5C 136.269,127.054 138.602,127.054 141,124.5C 141.308,125.308 141.808,125.975 142.5,126.5C 145.064,126.629 147.731,126.296 150.5,125.5C 151.999,127.802 153.332,127.469 154.5,124.5C 155.716,125.002 156.883,125.335 158,125.5C 159.487,124.747 159.654,123.914 158.5,123C 160.112,122.28 161.612,122.446 163,123.5C 163.689,122.643 164.522,121.977 165.5,121.5C 167.739,123.12 169.573,122.787 171,120.5C 171.333,121.167 171.667,121.833 172,122.5C 173.016,121.366 173.683,121.699 174,123.5C 174.667,122.167 175.333,122.167 176,123.5C 178.844,123.235 181.177,122.235 183,120.5C 183.388,121.428 184.055,122.095 185,122.5C 187.172,120.482 189.505,120.149 192,121.5C 193.204,120.529 193.704,119.529 193.5,118.5C 194.833,118.833 196.167,119.167 197.5,119.5C 198.914,118.376 200.414,117.376 202,116.5C 204.481,117.022 206.814,117.022 209,116.5C 209.324,114.431 210.158,114.098 211.5,115.5C 215.707,114.354 219.707,113.687 223.5,113.5C 223.5,103.5 223.5,93.5 223.5,83.5 Z"/></g>
<g><path style="opacity:1" fill="#db4134" d="M 25.5,124.5 C 27.0481,124.821 27.7148,125.821 27.5,127.5C 49.5739,133.847 70.9072,142.013 91.5,152C 101.003,154.086 110.337,156.752 119.5,160C 133.864,161.408 147.198,158.408 159.5,151C 165.709,148.864 172.042,147.198 178.5,146C 186.863,141.335 195.863,138.001 205.5,136C 210.335,134.086 214.669,131.419 218.5,128C 221.764,127.362 224.764,126.196 227.5,124.5C 230.221,124.963 232.888,125.629 235.5,126.5C 234.878,128.335 233.544,129.502 231.5,130C 196.96,141.937 162.627,154.437 128.5,167.5C 127.189,179.562 127.189,191.562 128.5,203.5C 127.5,203.5 126.5,203.5 125.5,203.5C 91.0516,190.239 56.3849,177.573 21.5,165.5C 20.4168,165.461 19.4168,165.127 18.5,164.5C 17.5009,151.851 17.1676,139.184 17.5,126.5C 20.221,126.037 22.8877,125.371 25.5,124.5 Z"/></g>
<g><path style="opacity:1" fill="#762a1d" d="M 219.5,121.5 C 220.791,121.263 221.791,121.596 222.5,122.5C 197.694,129.954 173.36,138.788 149.5,149C 144.216,150.057 139.049,151.557 134,153.5C 133.098,153.257 132.265,152.923 131.5,152.5C 160.383,141.067 189.716,130.733 219.5,121.5 Z"/></g>
<g><path style="opacity:1" fill="#892a20" d="M 33.5,120.5 C 63.2463,131.027 92.913,141.861 122.5,153C 124.134,153.494 125.801,153.66 127.5,153.5C 127.833,153.5 128.167,153.5 128.5,153.5C 129.391,152.89 130.391,152.557 131.5,152.5C 132.265,152.923 133.098,153.257 134,153.5C 139.049,151.557 144.216,150.057 149.5,149C 173.36,138.788 197.694,129.954 222.5,122.5C 223.791,122.263 224.791,122.596 225.5,123.5C 220.219,123.869 215.552,125.703 211.5,129C 205.357,131.603 199.023,133.603 192.5,135C 188.792,138.237 184.458,139.904 179.5,140C 176.498,142.503 173.165,144.503 169.5,146C 155.653,151.503 141.486,156.003 127,159.5C 122.086,158.801 117.252,157.634 112.5,156C 108.42,152.294 103.754,149.627 98.5,148C 78.0222,140.542 57.3555,133.542 36.5,127C 33.8854,126.388 32.2187,124.888 31.5,122.5C 32.1667,121.833 32.8333,121.167 33.5,120.5 Z"/></g>
<g><path style="opacity:1" fill="#ac3028" d="M 235.5,126.5 C 236.267,127.172 236.934,128.005 237.5,129C 236.18,136.137 236.18,143.303 237.5,150.5C 236.884,155.151 236.218,159.818 235.5,164.5C 234.261,164.942 233.261,165.609 232.5,166.5C 219.175,169.831 206.175,174.164 193.5,179.5C 171.674,187.108 150.008,195.108 128.5,203.5C 127.189,191.562 127.189,179.562 128.5,167.5C 162.627,154.437 196.96,141.937 231.5,130C 233.544,129.502 234.878,128.335 235.5,126.5 Z"/></g>
<g><path style="opacity:1" fill="#af2d27" d="M 31.5,122.5 C 32.2187,124.888 33.8854,126.388 36.5,127C 57.3555,133.542 78.0222,140.542 98.5,148C 103.754,149.627 108.42,152.294 112.5,156C 117.252,157.634 122.086,158.801 127,159.5C 141.486,156.003 155.653,151.503 169.5,146C 173.165,144.503 176.498,142.503 179.5,140C 184.458,139.904 188.792,138.237 192.5,135C 199.023,133.603 205.357,131.603 211.5,129C 215.552,125.703 220.219,123.869 225.5,123.5C 226.492,123.328 227.158,123.662 227.5,124.5C 224.764,126.196 221.764,127.362 218.5,128C 214.669,131.419 210.335,134.086 205.5,136C 195.863,138.001 186.863,141.335 178.5,146C 172.042,147.198 165.709,148.864 159.5,151C 147.198,158.408 133.864,161.408 119.5,160C 110.337,156.752 101.003,154.086 91.5,152C 70.9072,142.013 49.5739,133.847 27.5,127.5C 27.7148,125.821 27.0481,124.821 25.5,124.5C 27.2143,123.262 29.2143,122.595 31.5,122.5 Z"/></g>
<g><path style="opacity:1" fill="#2373bb" d="M 15.5,168.5 C 21.6494,169.908 27.3161,172.408 32.5,176C 34.5,176.333 36.5,176.667 38.5,177C 42.5956,179.759 46.929,182.093 51.5,184C 61.9103,187.184 72.2436,190.517 82.5,194C 83.8782,195.713 85.5448,197.047 87.5,198C 98.2044,202.403 109.204,206.069 120.5,209C 124.5,209.667 128.5,209.667 132.5,209C 137.528,206.49 142.861,204.823 148.5,204C 150.727,203.059 152.727,201.892 154.5,200.5C 157.851,198.227 161.518,196.393 165.5,195C 168.793,194.174 172.126,193.674 175.5,193.5C 185.523,191.336 195.523,188.836 205.5,186C 212.271,181.125 219.938,178.292 228.5,177.5C 234.126,174.847 239.793,172.514 245.5,170.5C 247.75,171.13 249.75,172.13 251.5,173.5C 244.255,177.278 236.589,180.278 228.5,182.5C 222.741,182.714 217.074,183.547 211.5,185C 183.474,195.784 155.308,205.951 127,215.5C 120.778,214.403 114.612,212.903 108.5,211C 74.766,197.792 41.0993,184.625 7.5,171.5C 9.89016,169.98 12.5568,168.98 15.5,168.5 Z"/></g>
<g><path style="opacity:1" fill="#1f64a5" d="M 234.5,167.5 C 238.223,168.297 241.89,169.297 245.5,170.5C 239.793,172.514 234.126,174.847 228.5,177.5C 219.938,178.292 212.271,181.125 205.5,186C 195.523,188.836 185.523,191.336 175.5,193.5C 181.414,189.694 187.914,187.028 195,185.5C 198.377,183.081 201.877,180.914 205.5,179C 212.083,177.583 218.416,175.583 224.5,173C 227.57,170.7 230.904,168.867 234.5,167.5 Z"/></g>
<g><path style="opacity:1" fill="#2a81cb" d="M 7.5,171.5 C 41.0993,184.625 74.766,197.792 108.5,211C 114.612,212.903 120.778,214.403 127,215.5C 155.308,205.951 183.474,195.784 211.5,185C 217.074,183.547 222.741,182.714 228.5,182.5C 195.052,195.541 161.385,208.208 127.5,220.5C 127.5,232.167 127.5,243.833 127.5,255.5C 123.5,255.5 119.5,255.5 115.5,255.5C 78.0501,240.734 40.3834,226.234 2.5,212C 1.34492,199.242 1.17825,186.409 2,173.5C 3.5843,172.139 5.41764,171.472 7.5,171.5 Z"/></g>
<g><path style="opacity:1" fill="#22487b" d="M 21.5,165.5 C 56.3849,177.573 91.0516,190.239 125.5,203.5C 134.412,204.209 142.745,202.042 150.5,197C 164.875,192.911 178.875,187.911 192.5,182C 193.252,181.329 193.586,180.496 193.5,179.5C 206.175,174.164 219.175,169.831 232.5,166.5C 233.492,166.328 234.158,166.662 234.5,167.5C 230.904,168.867 227.57,170.7 224.5,173C 218.416,175.583 212.083,177.583 205.5,179C 201.877,180.914 198.377,183.081 195,185.5C 187.914,187.028 181.414,189.694 175.5,193.5C 172.126,193.674 168.793,194.174 165.5,195C 161.518,196.393 157.851,198.227 154.5,200.5C 145.8,201.809 137.3,203.809 129,206.5C 123.843,205.672 118.677,204.839 113.5,204C 101.667,198.499 89.3341,194.165 76.5,191C 70.1545,186.826 63.4878,183.159 56.5,180C 43.7222,176.13 31.0555,171.963 18.5,167.5C 19.5,166.833 20.5,166.167 21.5,165.5 Z"/></g>
<g><path style="opacity:1" fill="#2a395e" d="M 193.5,179.5 C 193.586,180.496 193.252,181.329 192.5,182C 178.875,187.911 164.875,192.911 150.5,197C 142.745,202.042 134.412,204.209 125.5,203.5C 126.5,203.5 127.5,203.5 128.5,203.5C 150.008,195.108 171.674,187.108 193.5,179.5 Z"/></g>
<g><path style="opacity:1" fill="#1d5a98" d="M 15.5,168.5 C 16.209,167.596 17.209,167.263 18.5,167.5C 31.0555,171.963 43.7222,176.13 56.5,180C 63.4878,183.159 70.1545,186.826 76.5,191C 89.3341,194.165 101.667,198.499 113.5,204C 118.677,204.839 123.843,205.672 129,206.5C 137.3,203.809 145.8,201.809 154.5,200.5C 152.727,201.892 150.727,203.059 148.5,204C 142.861,204.823 137.528,206.49 132.5,209C 128.5,209.667 124.5,209.667 120.5,209C 109.204,206.069 98.2044,202.403 87.5,198C 85.5448,197.047 83.8782,195.713 82.5,194C 72.2436,190.517 61.9103,187.184 51.5,184C 46.929,182.093 42.5956,179.759 38.5,177C 36.5,176.667 34.5,176.333 32.5,176C 27.3161,172.408 21.6494,169.908 15.5,168.5 Z"/></g>
<g><path style="opacity:1" fill="#1e5d99" d="M 251.5,173.5 C 252.267,174.172 252.934,175.005 253.5,176C 252.56,187.811 252.227,199.978 252.5,212.5C 214.536,226.263 176.869,240.596 139.5,255.5C 135.5,255.5 131.5,255.5 127.5,255.5C 127.5,243.833 127.5,232.167 127.5,220.5C 161.385,208.208 195.052,195.541 228.5,182.5C 236.589,180.278 244.255,177.278 251.5,173.5 Z"/></g>
</svg>
